<svg width="40" height="40" viewBox="0 0 40 40" fill="none" xmlns="http://www.w3.org/2000/svg">
<path d="M5.40778 10.1284C6.45345 9.39754 8.02973 9.5377 8.96861 10.313L7.89179 8.74789C7.02523 7.512 7.33559 6.17489 8.57259 5.30721C9.80959 4.44287 13.3148 6.76669 13.3148 6.76669C12.4404 5.51857 12.604 3.93672 13.8521 3.06126C15.1002 2.18913 16.8222 2.49059 17.6966 3.74094L29.2879 20.1156L27.8106 34.4379L15.4818 29.9415L4.7281 13.9973C3.84596 12.7414 4.15076 11.0094 5.40778 10.1284Z" fill="#EF9645"/>
<path d="M2.99777 19.238C2.99777 19.238 1.73853 17.4025 3.57511 16.1443C5.40948 14.8862 6.66761 16.7206 6.66761 16.7206L12.5089 25.2394C12.7102 24.9035 12.9305 24.572 13.1763 24.2449L5.06908 12.4233C5.06908 12.4233 3.81095 10.589 5.64642 9.33084C7.48078 8.07271 8.73892 9.90707 8.73892 9.90707L16.3645 21.0278C16.6481 20.7964 16.9385 20.5639 17.2377 20.3359L8.39741 7.44197C8.39741 7.44197 7.13927 5.60761 8.97475 4.34947C10.8091 3.09134 12.0672 4.9257 12.0672 4.9257L20.9076 17.8174C21.2324 17.6183 21.5539 17.4459 21.8765 17.2634L13.6135 5.21382C13.6135 5.21382 12.3554 3.37945 14.1897 2.12132C16.0241 0.863184 17.2822 2.69755 17.2822 2.69755L26.0191 15.4391L27.3473 17.3769C21.8431 21.1524 21.3192 28.2551 24.4639 32.8416C25.0924 33.7593 26.0102 33.1308 26.0102 33.1308C22.2358 27.6255 23.3882 21.4394 28.8935 17.665L27.2705 9.5422C27.2705 9.5422 26.6643 7.40192 28.8034 6.79455C30.9437 6.18829 31.5511 8.32856 31.5511 8.32856L33.4255 13.8951C34.1686 16.1021 34.9595 18.3013 36.0063 20.3815C38.962 26.255 37.1966 33.5547 31.6234 37.378C25.5441 41.5462 17.2333 39.9966 13.064 33.9184L2.99777 19.238Z" fill="#FFDC5D"/>
<path d="M13.3481 35.5972C8.89842 35.5972 4.40206 31.1009 4.40206 26.6512C4.40206 26.0361 3.95154 25.5388 3.33638 25.5388C2.72121 25.5388 2.17725 26.0361 2.17725 26.6512C2.17725 33.3257 6.6736 37.822 13.3481 37.822C13.9632 37.822 14.4605 37.2781 14.4605 36.6629C14.4605 36.0477 13.9632 35.5972 13.3481 35.5972Z" fill="#5DADEC"/>
<path d="M7.78686 37.7753C4.44964 37.7753 2.22482 35.5505 2.22482 32.2133C2.22482 31.5981 1.72757 31.1009 1.11241 31.1009C0.497247 31.1009 0 31.5981 0 32.2133C0 36.6629 3.33723 40.0001 7.78686 40.0001C8.40202 40.0001 8.89927 39.5029 8.89927 38.8877C8.89927 38.2726 8.40202 37.7753 7.78686 37.7753ZM26.6978 2.17822C26.0838 2.17822 25.5854 2.67658 25.5854 3.29063C25.5854 3.90468 26.0838 4.40304 26.6978 4.40304C31.1474 4.40304 35.5971 8.39548 35.5971 13.3023C35.5971 13.9164 36.0954 14.4147 36.7095 14.4147C37.3235 14.4147 37.8219 13.9164 37.8219 13.3023C37.8219 7.16849 33.3723 2.17822 26.6978 2.17822Z" fill="#5DADEC"/>
<path d="M32.2599 0C31.6458 0 31.1475 0.451638 31.1475 1.06569C31.1475 1.67974 31.6458 2.22482 32.2599 2.22482C35.5971 2.22482 37.7752 4.69993 37.7752 7.74014C37.7752 8.35419 38.3192 8.85255 38.9343 8.85255C39.5495 8.85255 40 8.35419 40 7.74014C40 3.47183 36.7095 0 32.2599 0Z" fill="#5DADEC"/>
</svg>
