<svg width="302" height="299" viewBox="0 0 302 299" fill="none" xmlns="http://www.w3.org/2000/svg">
<rect width="299" height="299" rx="20" fill="#1C4EDF"/>
<path d="M2.33333 238C2.33333 239.473 3.52724 240.667 5 240.667C6.47276 240.667 7.66667 239.473 7.66667 238C7.66667 236.527 6.47276 235.333 5 235.333C3.52724 235.333 2.33333 236.527 2.33333 238ZM234 118L234.25 118.433L234 118ZM296.333 44.5C296.333 45.9728 297.527 47.1667 299 47.1667C300.473 47.1667 301.667 45.9728 301.667 44.5C301.667 43.0272 300.473 41.8333 299 41.8333C297.527 41.8333 296.333 43.0272 296.333 44.5ZM5.31946 238.385C80.5883 175.869 122.23 132.477 145.411 109.921C151.208 104.28 155.838 99.955 159.548 96.9583C161.402 95.4603 163.016 94.3026 164.423 93.4807C165.834 92.6565 167.01 92.1856 167.991 92.0331C168.958 91.8829 169.724 92.0425 170.36 92.4735C171.01 92.9135 171.58 93.6735 172.068 94.8251C173.051 97.1416 173.626 100.846 174.001 106.036L174.999 105.964C174.624 100.779 174.043 96.9209 172.989 94.4346C172.459 93.1849 171.789 92.2335 170.921 91.6454C170.039 91.0483 169.007 90.8632 167.837 91.045C166.682 91.2246 165.382 91.7625 163.919 92.6172C162.452 93.4742 160.794 94.6657 158.919 96.1804C155.17 99.209 150.511 103.563 144.714 109.204C121.52 131.773 79.9117 175.131 4.68054 237.615L5.31946 238.385ZM174.001 106.036C174.747 116.346 173.288 125.45 172.054 132.539C171.44 136.072 170.875 139.134 170.679 141.573C170.581 142.796 170.573 143.886 170.705 144.819C170.836 145.751 171.112 146.56 171.608 147.186C172.636 148.48 174.411 148.773 176.951 148.268C179.51 147.759 183.029 146.407 187.793 144.139C197.331 139.597 212.006 131.305 234.25 118.433L233.75 117.567C211.494 130.445 196.857 138.715 187.363 143.236C182.611 145.499 179.186 146.804 176.756 147.287C174.308 147.774 173.052 147.395 172.392 146.564C172.045 146.127 171.812 145.51 171.695 144.68C171.578 143.85 171.581 142.841 171.676 141.653C171.867 139.273 172.42 136.272 173.039 132.711C174.275 125.612 175.753 116.404 174.999 105.964L174.001 106.036ZM234.25 118.433C237.959 116.287 243.146 111.485 248.994 105.323C254.856 99.1463 261.425 91.5564 267.903 83.7877C274.383 76.018 280.776 68.0645 286.289 61.1591C291.803 54.2504 296.431 48.3974 299.386 44.8183L298.614 44.1817C295.653 47.7692 291.015 53.6346 285.507 60.5352C279.996 67.4392 273.608 75.386 267.135 83.1472C260.662 90.9093 254.109 98.4806 248.268 104.635C242.414 110.804 237.317 115.503 233.75 117.567L234.25 118.433Z" fill="white"/>
<circle cx="195" cy="250.5" r="28" stroke="#F0F0F0"/>
<circle cx="59" cy="49.5" r="28" stroke="#F0F0F0"/>
<circle cx="259.5" cy="172" r="17.5" stroke="#F0F0F0"/>
<path d="M167.25 151.719C160.668 151.719 154.233 149.767 148.76 146.11C143.287 142.453 139.021 137.255 136.502 131.174C133.983 125.092 133.324 118.401 134.608 111.945C135.892 105.489 139.062 99.5586 143.717 94.9041C148.371 90.2497 154.301 87.0799 160.757 85.7958C167.213 84.5116 173.905 85.1707 179.986 87.6896C186.068 90.2086 191.265 94.4744 194.922 99.9474C198.579 105.421 200.531 111.855 200.531 118.438C200.531 127.264 197.025 135.729 190.783 141.971C184.542 148.212 176.077 151.719 167.25 151.719ZM167.25 98.4688C163.301 98.4688 159.44 99.6399 156.156 101.834C152.872 104.028 150.313 107.147 148.801 110.796C147.29 114.445 146.894 118.46 147.665 122.333C148.435 126.207 150.337 129.765 153.13 132.558C155.923 135.35 159.481 137.252 163.354 138.023C167.228 138.793 171.243 138.398 174.892 136.886C178.541 135.375 181.659 132.815 183.853 129.532C186.048 126.248 187.219 122.387 187.219 118.438C187.219 113.141 185.115 108.062 181.37 104.317C177.625 100.573 172.546 98.4688 167.25 98.4688Z" fill="white"/>
<path d="M229.375 213.844C227.617 213.821 225.937 213.112 224.694 211.869C223.45 210.625 222.742 208.946 222.719 207.188C222.719 189.881 213.311 178.344 167.25 178.344C121.189 178.344 111.781 189.881 111.781 207.188C111.781 208.953 111.08 210.646 109.832 211.894C108.583 213.142 106.89 213.844 105.125 213.844C103.36 213.844 101.667 213.142 100.418 211.894C99.17 210.646 98.4688 208.953 98.4688 207.188C98.4688 165.031 146.66 165.031 167.25 165.031C187.84 165.031 236.031 165.031 236.031 207.188C236.008 208.946 235.3 210.625 234.056 211.869C232.813 213.112 231.133 213.821 229.375 213.844Z" fill="white"/>
<path d="M116.84 158.908H114C106.939 158.225 100.438 154.765 95.9271 149.289C91.4166 143.814 89.2661 136.77 89.9487 129.709C90.6313 122.648 94.0911 116.146 99.5669 111.636C105.043 107.126 112.086 104.975 119.147 105.658C120.053 105.697 120.941 105.92 121.757 106.314C122.573 106.708 123.3 107.265 123.893 107.95C124.486 108.635 124.934 109.434 125.207 110.298C125.481 111.162 125.575 112.073 125.484 112.974C125.394 113.876 125.12 114.75 124.679 115.542C124.239 116.334 123.642 117.028 122.924 117.581C122.206 118.134 121.382 118.535 120.504 118.758C119.626 118.982 118.711 119.024 117.816 118.881C116.084 118.709 114.334 118.887 112.672 119.405C111.01 119.924 109.469 120.772 108.142 121.899C106.795 122.986 105.677 124.331 104.854 125.855C104.031 127.378 103.52 129.051 103.35 130.774C103.166 132.519 103.332 134.283 103.837 135.963C104.342 137.644 105.176 139.207 106.292 140.561C107.407 141.916 108.78 143.035 110.332 143.854C111.884 144.672 113.584 145.174 115.331 145.329C118.22 145.576 121.113 144.892 123.585 143.376C125.091 142.447 126.905 142.153 128.628 142.561C130.351 142.969 131.841 144.044 132.771 145.551C133.7 147.057 133.994 148.871 133.586 150.594C133.178 152.317 132.103 153.807 130.596 154.736C126.48 157.362 121.721 158.805 116.84 158.908Z" fill="white"/>
<path d="M69.625 207.188C67.8668 207.165 66.1871 206.456 64.9437 205.213C63.7004 203.969 62.9917 202.289 62.9688 200.531C62.9688 176.569 69.3588 160.594 100.688 160.594C102.453 160.594 104.146 161.295 105.394 162.543C106.642 163.792 107.344 165.485 107.344 167.25C107.344 169.015 106.642 170.708 105.394 171.957C104.146 173.205 102.453 173.906 100.688 173.906C79.8313 173.906 76.2812 180.562 76.2812 200.531C76.2583 202.289 75.5496 203.969 74.3063 205.213C73.0629 206.456 71.3832 207.165 69.625 207.188Z" fill="white"/>
</svg>
