<svg width="302" height="299" viewBox="0 0 302 299" fill="none" xmlns="http://www.w3.org/2000/svg">
<rect x="3" width="299" height="299" rx="20" fill="#F5843F"/>
<path d="M0.833333 229C0.833333 230.473 2.02724 231.667 3.5 231.667C4.97276 231.667 6.16667 230.473 6.16667 229C6.16667 227.527 4.97276 226.333 3.5 226.333C2.02724 226.333 0.833333 227.527 0.833333 229ZM232.5 109L232.75 109.433L232.5 109ZM294.833 35.5C294.833 36.9728 296.027 38.1667 297.5 38.1667C298.973 38.1667 300.167 36.9728 300.167 35.5C300.167 34.0272 298.973 32.8333 297.5 32.8333C296.027 32.8333 294.833 34.0272 294.833 35.5ZM3.81946 229.385C79.0883 166.869 120.73 123.477 143.911 100.921C149.708 95.2804 154.338 90.955 158.048 87.9583C159.902 86.4603 161.516 85.3026 162.923 84.4807C164.334 83.6565 165.51 83.1856 166.491 83.0331C167.458 82.8829 168.224 83.0425 168.86 83.4735C169.51 83.9135 170.08 84.6735 170.568 85.8251C171.551 88.1416 172.126 91.8463 172.501 97.0361L173.499 96.964C173.124 91.7787 172.543 87.9209 171.489 85.4346C170.959 84.1849 170.289 83.2335 169.421 82.6454C168.539 82.0483 167.507 81.8632 166.337 82.045C165.182 82.2246 163.882 82.7625 162.419 83.6172C160.952 84.4742 159.294 85.6657 157.419 87.1804C153.67 90.209 149.011 94.5633 143.214 100.204C120.02 122.773 78.4117 166.131 3.18054 228.615L3.81946 229.385ZM172.501 97.0361C173.247 107.346 171.788 116.45 170.554 123.539C169.94 127.072 169.375 130.134 169.179 132.573C169.081 133.796 169.073 134.886 169.205 135.819C169.336 136.751 169.612 137.56 170.108 138.186C171.136 139.48 172.911 139.773 175.451 139.268C178.01 138.759 181.529 137.407 186.293 135.139C195.831 130.597 210.506 122.305 232.75 109.433L232.25 108.567C209.994 121.445 195.357 129.715 185.863 134.236C181.111 136.499 177.686 137.804 175.256 138.287C172.808 138.774 171.552 138.395 170.892 137.564C170.545 137.127 170.312 136.51 170.195 135.68C170.078 134.85 170.081 133.841 170.176 132.653C170.367 130.273 170.92 127.272 171.539 123.711C172.775 116.612 174.253 107.404 173.499 96.964L172.501 97.0361ZM232.75 109.433C236.459 107.287 241.646 102.485 247.494 96.3232C253.356 90.1463 259.925 82.5564 266.403 74.7877C272.883 67.018 279.276 59.0645 284.789 52.1591C290.303 45.2504 294.931 39.3974 297.886 35.8183L297.114 35.1817C294.153 38.7692 289.515 44.6346 284.007 51.5352C278.496 58.4392 272.108 66.386 265.635 74.1472C259.162 81.9093 252.609 89.4806 246.768 95.6348C240.914 101.804 235.817 106.503 232.25 108.567L232.75 109.433Z" fill="white"/>
<path d="M107.185 69.0625V82.6712H83.0312V95.995C83.0312 118.296 89.6575 130.729 105.582 138.46C111.502 141.643 116.966 145.609 121.827 150.252C125.734 154.419 130.498 157.689 135.792 159.835L141.812 161.688V177.826H132.621C121.506 177.826 117.766 180.355 117.766 187.872V192.931H187.234V188.406C187.234 181.032 182.674 177.719 172.129 177.719H163.188V161.688L169.315 159.871C174.616 157.722 179.383 154.439 183.28 150.252C188.351 145.419 194.027 141.264 200.166 137.89C204.933 135.596 209.19 132.367 212.685 128.395C216.179 124.423 218.84 119.79 220.508 114.769C221.642 108.553 222.167 102.242 222.076 95.9238V82.7069H197.815V69.0625H107.185ZM152.5 91.7556L159.803 106.861H177.402L163.615 119.579L167.569 135.824L152.5 127.737L137.431 135.931L141.385 119.686L127.562 106.967H145.197L152.5 91.7556ZM95.7138 96.28H106.971V124.353C105.796 125.065 102.126 120.79 99.4544 115.909C97.9375 112.173 96.9656 108.238 96.5688 104.224L95.7138 96.28ZM198.029 96.28H210.284L209.251 104.118C209.008 110.642 206.385 116.851 201.876 121.574C200.816 123.019 199.47 124.232 197.922 125.136L198.029 96.28Z" stroke="white" stroke-width="7.125" stroke-linecap="round" stroke-linejoin="round"/>
<circle cx="193.5" cy="241.5" r="28" stroke="#F0F0F0"/>
<circle cx="57.5" cy="40.5" r="28" stroke="#F0F0F0"/>
<circle cx="258" cy="163" r="17.5" stroke="#F0F0F0"/>
</svg>
