<svg width="32" height="32" viewBox="0 0 32 32" fill="none" xmlns="http://www.w3.org/2000/svg">
<path d="M11.3337 25.3333H10.667C5.33366 25.3333 2.66699 24 2.66699 17.3333V10.6666C2.66699 5.33329 5.33366 2.66663 10.667 2.66663H21.3337C26.667 2.66663 29.3337 5.33329 29.3337 10.6666V17.3333C29.3337 22.6666 26.667 25.3333 21.3337 25.3333H20.667C20.2537 25.3333 19.8537 25.5333 19.6003 25.8666L17.6003 28.5333C16.7203 29.7066 15.2803 29.7066 14.4003 28.5333L12.4003 25.8666C12.187 25.5733 11.6937 25.3333 11.3337 25.3333Z" stroke="#292D32" stroke-width="1.5" stroke-miterlimit="10" stroke-linecap="round" stroke-linejoin="round"/>
<path opacity="0.4" d="M9.33301 10.6666H22.6663" stroke="#292D32" stroke-width="1.5" stroke-linecap="round" stroke-linejoin="round"/>
<path opacity="0.4" d="M9.33301 17.3334H17.333" stroke="#292D32" stroke-width="1.5" stroke-linecap="round" stroke-linejoin="round"/>
</svg>
