<svg width="147" height="146" viewBox="0 0 147 146" fill="none" xmlns="http://www.w3.org/2000/svg">
<path d="M85.7275 127.75C82.7467 127.75 79.9483 126.351 77.6367 125.134C76.1767 124.404 74.4125 123.492 73.5 123.492C72.5875 123.492 70.7625 124.404 69.3633 125.134C66.4433 126.655 62.7933 128.48 58.9 127.446C54.885 126.412 52.695 122.883 50.87 120.085C50.0791 118.807 48.9841 117.104 48.2541 116.678C47.5241 116.252 45.5775 116.192 43.935 116.07C40.65 115.887 36.5741 115.705 33.6541 112.846C30.7341 109.865 30.5516 105.789 30.3691 102.504C30.3083 100.922 30.1866 98.915 29.7608 98.185C29.3958 97.5158 27.6316 96.4208 26.415 95.63C23.6166 93.805 20.1491 91.5541 19.0541 87.6C18.02 83.7066 19.845 80.0566 21.3658 77.1367C22.0958 75.6767 23.0083 73.9125 23.0083 73C23.0083 72.0875 22.0958 70.2625 21.3658 68.8633C19.845 65.9433 18.02 62.2933 19.0541 58.4C20.0883 54.385 23.6166 52.195 26.415 50.37C27.6925 49.5791 29.3958 48.4841 29.8216 47.7541C30.2475 47.0241 30.3083 45.0775 30.43 43.435C30.6125 40.15 30.795 36.0741 33.6541 33.1541C36.635 30.2341 40.7108 30.0516 43.9958 29.8691C45.5775 29.8083 47.585 29.6866 48.315 29.2608C48.9841 28.8958 50.0791 27.1316 50.87 25.915C52.695 23.1166 54.9458 19.6491 58.9 18.5541C62.7933 17.52 66.4433 19.345 69.3633 20.8658C70.8233 21.5958 72.5875 22.5083 73.5 22.5083C74.4125 22.5083 76.2375 21.5958 77.6367 20.8658C80.5566 19.4058 84.2066 17.52 88.1 18.5541C92.115 19.5883 94.305 23.1166 96.13 25.915C96.9208 27.1925 98.0158 28.8958 98.7458 29.3216C99.4758 29.7475 101.422 29.8083 103.065 29.93C106.35 30.1125 110.426 30.295 113.346 33.1541C116.266 36.135 116.448 40.2108 116.631 43.4958C116.692 45.0775 116.813 47.085 117.239 47.815C117.604 48.4841 119.368 49.5791 120.585 50.37C123.383 52.195 126.851 54.4458 127.946 58.4C128.98 62.2933 127.155 65.9433 125.634 68.8633C124.904 70.3233 123.992 72.0875 123.992 73C123.992 73.9125 124.904 75.7375 125.634 77.1367C127.155 80.0566 128.98 83.7066 127.946 87.6C126.912 91.615 123.383 93.805 120.585 95.63C119.307 96.4208 117.604 97.5158 117.178 98.2458C116.752 98.9758 116.692 100.922 116.57 102.565C116.387 105.85 116.205 109.926 113.346 112.846C110.365 115.766 106.289 115.948 103.004 116.131C101.422 116.192 99.415 116.313 98.685 116.739C98.0158 117.104 96.9208 118.868 96.13 120.085C94.305 122.883 92.0541 126.351 88.1 127.446C87.3091 127.689 86.5183 127.75 85.7275 127.75ZM61.3333 27.375C61.3333 27.375 61.3333 27.375 61.2725 27.375C60.6642 27.6183 59.265 29.6866 58.5958 30.8425C57.1358 33.0933 55.4933 35.6483 52.8775 37.1691C50.2008 38.69 47.1591 38.8725 44.4216 38.9941C43.0833 39.055 40.5891 39.1766 40.0416 39.6025C39.6766 40.0891 39.555 42.5225 39.4941 43.8608C39.3725 46.5983 39.19 49.64 37.6691 52.2558C36.1483 54.8717 33.5933 56.5141 31.3425 57.9741C30.1866 58.7041 28.1183 60.0425 27.875 60.7116C27.8141 61.3808 28.8483 63.4492 29.4566 64.6658C30.6733 67.0992 32.1333 69.8366 32.1333 72.9391C32.1333 76.0416 30.7341 78.7791 29.4566 81.2125C28.8483 82.4292 27.7533 84.4975 27.875 85.1666C28.1183 85.775 30.1866 87.1741 31.3425 87.8433C33.5933 89.3033 36.1483 90.9458 37.6691 93.5616C39.19 96.2383 39.3725 99.28 39.4941 102.017C39.555 103.356 39.6766 105.85 40.1025 106.397C40.5891 106.762 43.0225 106.884 44.3608 106.945C47.0983 107.067 50.14 107.249 52.7558 108.77C55.3717 110.291 57.0141 112.846 58.4741 115.097C59.2041 116.252 60.5425 118.321 61.2116 118.564C61.82 118.747 63.9492 117.591 65.1658 116.982C67.5992 115.766 70.3366 114.306 73.4391 114.306C76.5416 114.306 79.2791 115.705 81.7125 116.982C82.9292 117.591 84.8758 118.747 85.6666 118.564C86.275 118.321 87.6741 116.252 88.3433 115.097C89.8033 112.846 91.4458 110.291 94.0616 108.77C96.7383 107.249 99.78 107.067 102.517 106.945C103.856 106.884 106.35 106.762 106.897 106.337C107.262 105.85 107.384 103.417 107.445 102.078C107.567 99.3408 107.749 96.2991 109.27 93.6833C110.791 91.0675 113.346 89.425 115.597 87.965C116.752 87.235 118.821 85.8967 119.064 85.2275C119.125 84.5583 118.091 82.49 117.482 81.2733C116.266 78.84 114.806 76.1025 114.806 73C114.806 69.8975 116.205 67.16 117.482 64.7267C118.091 63.51 119.125 61.4417 119.064 60.7725C118.821 60.1033 116.692 58.765 115.597 58.035C113.346 56.575 110.791 54.9325 109.27 52.3167C107.749 49.64 107.567 46.5983 107.445 43.8608C107.384 42.5225 107.262 40.0283 106.837 39.4808C106.35 39.1158 103.917 38.9941 102.578 38.9333C99.8408 38.8116 96.7991 38.6291 94.1833 37.1083C91.5675 35.5875 89.925 33.0325 88.465 30.7816C87.735 29.6258 86.3967 27.5575 85.7275 27.3141C85.1191 27.1316 82.99 28.2875 81.7733 28.8958C79.34 30.1125 76.6025 31.5725 73.5 31.5725C70.3975 31.5725 67.66 30.1733 65.2267 28.8958C64.01 28.2875 62.0633 27.3141 61.3333 27.3141V27.375ZM64.3141 94.3525C63.0975 94.3525 61.9417 93.8658 61.09 93.0141L45.8208 77.745C44.0566 75.9808 44.0566 73.0608 45.8208 71.2966C47.585 69.5325 50.505 69.5325 52.2691 71.2966L64.3141 83.3416L94.67 52.9858C96.4341 51.2216 99.3542 51.2216 101.118 52.9858C102.882 54.75 102.882 57.67 101.118 59.4342L67.5383 93.0141C66.6866 93.8658 65.5308 94.3525 64.3141 94.3525Z" fill="#F5843F"/>
</svg>
