<svg width="21" height="20" viewBox="0 0 21 20" fill="none" xmlns="http://www.w3.org/2000/svg">
<path d="M11.8246 1.44418L13.5989 4.99288C13.8409 5.48687 14.4861 5.9607 15.0305 6.05143L18.2465 6.58576C20.3031 6.92853 20.787 8.42059 19.305 9.8925L16.8048 12.3927C16.3814 12.8161 16.1495 13.6327 16.2806 14.2175L16.9964 17.3125C17.5609 19.7623 16.2604 20.71 14.0929 19.4296L11.0785 17.6452C10.5341 17.3226 9.63686 17.3226 9.08238 17.6452L6.068 19.4296C3.91056 20.71 2.59996 19.7522 3.16452 17.3125L3.88031 14.2175C4.01137 13.6327 3.7795 12.8161 3.35607 12.3927L0.855853 9.8925C-0.616049 8.42059 -0.142217 6.92853 1.91441 6.58576L5.13042 6.05143C5.66474 5.9607 6.30996 5.48687 6.55191 4.99288L8.32626 1.44418C9.29409 -0.481393 10.8668 -0.481393 11.8246 1.44418Z" fill="#EAC904"/>
</svg>
