<svg width="101" height="100" viewBox="0 0 101 100" fill="none" xmlns="http://www.w3.org/2000/svg">
<path d="M59.9998 4.56021e-06C69.1497 -0.00436276 78.0245 3.12834 85.1441 8.87563C92.2637 14.6229 97.1977 22.6374 99.1232 31.5823C101.049 40.5273 99.8493 49.862 95.7251 58.0297C91.6008 66.1974 84.8011 72.7042 76.4598 76.465C73.7936 82.3596 69.7374 87.5194 64.6391 91.5021C59.5408 95.4848 53.5526 98.1715 47.188 99.3317C40.8234 100.492 34.2723 100.091 28.0966 98.1634C21.921 96.2358 16.305 92.8391 11.7304 88.2644C7.15575 83.6898 3.75898 78.0739 1.8314 71.8982C-0.0961941 65.7225 -0.49708 59.1715 0.663118 52.8068C1.82332 46.4422 4.50997 40.454 8.49268 35.3557C12.4754 30.2574 17.6353 26.2012 23.5298 23.535C26.7005 16.5195 31.8278 10.5675 38.2965 6.39304C44.7653 2.21857 52.301 -0.00118532 59.9998 4.56021e-06ZM39.9998 30C36.0602 30 32.1591 30.776 28.5193 32.2836C24.8796 33.7913 21.5724 36.001 18.7866 38.7868C16.0009 41.5726 13.7911 44.8797 12.2834 48.5195C10.7758 52.1593 9.99982 56.0603 9.99982 60C9.99982 63.9397 10.7758 67.8407 12.2834 71.4805C13.7911 75.1203 16.0009 78.4275 18.7866 81.2132C21.5724 83.999 24.8796 86.2087 28.5193 87.7164C32.1591 89.224 36.0602 90 39.9998 90C47.9563 90 55.5869 86.8393 61.213 81.2132C66.8391 75.5871 69.9998 67.9565 69.9998 60C69.9998 52.0435 66.8391 44.4129 61.213 38.7868C55.5869 33.1607 47.9563 30 39.9998 30ZM44.9998 35V40H54.9998V50H34.9998C34.3751 49.9989 33.7726 50.2317 33.3109 50.6525C32.8492 51.0734 32.5619 51.6519 32.5054 52.2741C32.449 52.8963 32.6275 53.5171 33.0059 54.0142C33.3843 54.5113 33.9351 54.8487 34.5498 54.96L34.9998 55H44.9998C48.315 55 51.4944 56.317 53.8387 58.6612C56.1829 61.0054 57.4998 64.1848 57.4998 67.5C57.4998 70.8152 56.1829 73.9946 53.8387 76.3388C51.4944 78.683 48.315 80 44.9998 80V85H34.9998V80H24.9998V70H44.9998C45.6245 70.0012 46.2271 69.7684 46.6887 69.3475C47.1504 68.9266 47.4377 68.3481 47.4942 67.7259C47.5506 67.1037 47.3721 66.483 46.9937 65.9858C46.6153 65.4887 46.0646 65.1513 45.4498 65.04L44.9998 65H34.9998C31.6846 65 28.5052 63.683 26.161 61.3388C23.8168 58.9946 22.4998 55.8152 22.4998 52.5C22.4998 49.1848 23.8168 46.0054 26.161 43.6612C28.5052 41.317 31.6846 40 34.9998 40V35H44.9998ZM59.9998 10C55.7632 9.99505 51.5739 10.8897 47.7089 12.6248C43.844 14.3599 40.3915 16.8959 37.5798 20.065C43.2311 19.7219 48.8909 20.5825 54.1849 22.5897C59.4788 24.597 64.2863 27.7052 68.2896 31.7089C72.2927 35.7126 75.4004 40.5205 77.407 45.8147C79.4137 51.1089 80.2736 56.7687 79.9298 62.42C84.4759 58.3781 87.6858 53.0497 89.1339 47.1416C90.582 41.2334 90.1998 35.0246 88.038 29.3386C85.8762 23.6526 82.037 18.7582 77.0295 15.3044C72.022 11.8506 66.0829 10.0007 59.9998 10Z" fill="#E4E4E4"/>
</svg>
